/* XPM */
static char * back_xpm[] = {
"14 19 13 1",
" 	c None",
".	c #682828",
"+	c #C03838",
"@	c #F86848",
"#	c #000000",
"$	c #A87840",
"%	c #784040",
"&	c #D89070",
"*	c #383878",
"=	c #B89838",
"-	c #F8C090",
";	c #F8D858",
">	c #70A0C0",
"   ........   ",
"  .+@@@@@@+.  ",
"  .@@@@@@@@.  ",
" .+@@@@@@@@+. ",
" .++@@@@@@++. ",
" #++++++++++# ",
" #.++++++++.# ",
"#$%.++##++.%$#",
"#&#%......%#&#",
" ##%%$%%$%%## ",
"  ###%%%%###  ",
" #*%=####=%## ",
"%-*+=++++=+*-%",
"%&%+%;;;;%+%&%",
" %##=;;;;=##% ",
"  *>======>*  ",
"  ##>=%%=>##  ",
"  #**####**#  ",
"   ##    ##   "};
