/* XPM */
static char * exit_xpm[] = {
"32 32 10 1",
" 	c #908870",
".	c #787058",
"+	c #484838",
"@	c #F8E8A0",
"#	c #C8A878",
"$	c #684028",
"%	c #000000",
"&	c #907048",
"*	c #A07858",
"=	c #A8A888",
"  ......++++@@@@++++++++......  ",
"  ......++++@@@@++++++++......  ",
"....++++++@@##++++++++++++++....",
"....++++++@@##++++++++++++++....",
"..++++++$$##%%++%%++%%++%%++++..",
"..++++++$$##%%++%%++%%++%%++++..",
"++++++%%$$&&##%%++%%++%%++&&&&++",
"++++++%%$$&&##%%++%%++%%++&&&&++",
"++++%%%%$$##**@@%%%%%%%%&&@@@@++",
"++++%%%%$$##**@@%%%%%%%%&&@@@@++",
"++%%%%%%$$##%%**@@%%%%%%@@##%%++",
"++%%%%%%$$##%%**@@%%%%%%@@##%%++",
"++%%%%%%$$##%%%%&&@@%%&&@@%%%%++",
"++%%%%%%$$##%%%%&&@@%%&&@@%%%%++",
"++%%%%%%$$**##%%%%**##$$@@%%%%++",
"++%%%%%%$$**##%%%%**##$$@@%%%%++",
"++%%%%%%$$****##%%%%**$$##%%%%++",
"++%%%%%%$$****##%%%%**$$##%%%%++",
"++%%%%%%$$**%%**##%%%%$$##%%%%++",
"++%%%%%%$$**%%**##%%%%$$##%%%%++",
"++%%%%%%%%$$%%%%**##%%$$##%%%%..",
"++%%%%%%%%$$%%%%**##%%$$##%%%%..",
"++%%%%%%%%$$**%%%%&&##$$##%%%%..",
"++%%%%%%%%$$**%%%%&&##$$##%%%%..",
"++++%%%%%%%%$$$$%%%%&&$$##%%%%++",
"++++%%%%%%%%$$$$%%%%&&$$##%%%%++",
"..++++%%%%%%%%$$$$%%%%$$$$%%++..",
"..++++%%%%%%%%$$$$%%%%$$$$%%++..",
"....++++++%%%%%%$$$$%%$$%%++..==",
"....++++++%%%%%%$$$$%%$$%%++..==",
"      ..++++++++++++++++++..    ",
"      ..++++++++++++++++++..    "};
