/* XPM */
static char * front_xpm[] = {
"32 32 9 1",
" 	c None",
".	c #FFFFFF",
"+	c #000000",
"@	c #C93655",
"#	c #F8F8F8",
"$	c #FFD5BD",
"%	c #DEA47B",
"&	c #5A58A2",
"*	c #9E374D",
".........++++++++++++++.........",
".........++++++++++++++.........",
".......++@@@@@@@@@@@@@@++.......",
".......++@@@@@@@@@@@@@@++.......",
".....++@@@@@########@@@@@++.....",
".....++@@@@@########@@@@@++.....",
".....++@@##############@@++.....",
".....++@@##############@@++.....",
"...++++++##############+++++++..",
"...++++++##############+++++++..",
"...++++$$++++++++++++++$$+++++..",
"...++++$$++++++++++++++$$+++++..",
"+++$$++$$$$$$$$$$$$$$$$$$++$$$++",
"+++$$++$$$$$$$$$$$$$$$$$$++$$$++",
"+++$$$$$$$$$++$$$$++$$$$$$$$$$++",
"+++$$$$$$$$$++$$$$++$$$$$$$$$$++",
"...++++$$$$$++$$$$++$$$$$+++++..",
"...++++$$$$$++$$$$++$$$$$+++++..",
"...++++++$$$$$++++$$$$$+++++++..",
"...++++++$$$$$++++$$$$$+++++++..",
"+++$$$$++++++++++++++++++$$$$$++",
"+++$$$$++++++++++++++++++$$$$$++",
"+++$$$$++++++++++++++++++$$%%%++",
"+++$$$$++++++++++++++++++$$%%%++",
"...++++++&&&&&++++&&&&&+++++++..",
".....++**+++++&&&&+++++**++.....",
".....++**+++++&&&&+++++**++.....",
".....++*******++++*******++.....",
".....++*******++++*******++.....",
".....++*******++++*******++.....",
".......+++++++....+++++++.......",
".......+++++++....+++++++......."};
