/* XPM */
static char * front_2_xpm[] = {
"32 38 14 1",
" 	c None",
".	c #FFFFFF",
"+	c #682828",
"@	c #C03838",
"#	c #F86848",
"$	c #000000",
"%	c #E8E8F8",
"&	c #A87840",
"*	c #B0B0D0",
"=	c #D89070",
"-	c #383878",
";	c #784040",
">	c #F8C090",
",	c #70A0C0",
".......++++++++++++++++.........",
".......++++++++++++++++.........",
".....++@@############@@++.......",
".....++@@############@@++.......",
".....++################++.......",
".....++################++.......",
"...++@@################@@++.....",
"...++@@################@@++.....",
"...$$@@@@############@@@@$$.....",
"...$$@@@@############@@@@$$.....",
"...$$@@@@@@@@%%%%@@@@@@@@$$.....",
"...$$@@@@@@@@%%%%@@@@@@@@$$.....",
".$$&&++**@@**@@@@**@@**++&&$$...",
".$$&&++**@@**@@@@**@@**++&&$$...",
".$$==$$--%%%%%%%%%%%%--$$==$$...",
".$$==$$--%%%%%%%%%%%%--$$==$$...",
"...$$;;==------------==;;$$.....",
"...$$;;==------------==;;$$.....",
"...$$====>>$$>>>>$$>>====$$;;...",
"...$$====>>$$>>>>$$>>====$$;;...",
".....;;====;;>>>>;;====;;--==;;.",
".....;;====;;>>>>;;====;;--==;;.",
".....$$$$;;========;;$$$$--==;;.",
".....$$$$;;========;;$$$$--==;;.",
"...$$----@@$$$$$$$$++@@--$$$$...",
"...$$----@@$$$$$$$$++@@--$$$$...",
"...;;>>>>;;@@****@@@@@@;;.......",
"...;;>>>>;;@@****@@@@@@;;.......",
"...;;====;;##%%%%##@@$$$$.......",
"...;;====;;##%%%%##@@$$$$.......",
".....;;;;$$$$$$$$$$--,,$$.......",
".....;;;;$$$$$$$$$$--,,$$.......",
"...........$$$$--,,,,$$.........",
"...........$$$$--,,,,$$.........",
"...............$$----$$.........",
"...............$$----$$.........",
".................$$$$...........",
".................$$$$..........."};
