/* XPM */
static char * ground_xpm[] = {
"32 32 5 1",
" 	c None",
".	c #908870",
"+	c #A8A888",
"@	c #787058",
"#	c #B8B898",
"..........++++++@@......####@@..",
"..........++++++@@......####@@..",
"......++++++++@@@@......@@@@....",
"......++++++++@@@@......@@@@....",
"......@@@@@@@@..................",
"......@@@@@@@@..................",
"................................",
"................................",
"####........++++++..............",
"####........++++++..............",
"@@@@......++++++++++....++++....",
"@@@@......++++++++++....++++....",
"........++++++++@@@@....@@++++..",
"........++++++++@@@@....@@++++..",
"..++++....@@@@@@..........@@@@..",
"..++++....@@@@@@..........@@@@..",
"..++++++@@......####@@..........",
"..++++++@@......####@@..........",
"..@@@@@@........@@@@............",
"..@@@@@@........@@@@............",
"....................++++++++....",
"....................++++++++....",
"....++++........++++++++........",
"....++++........++++++++........",
"++++++++++........++++++++....@@",
"++++++++++........++++++++....@@",
"++++++@@@@........@@@@@@........",
"++++++@@@@........@@@@@@........",
"@@@@@@..####@@............++++++",
"@@@@@@..####@@............++++++",
"........@@@@....................",
"........@@@@...................."};
