/* XPM */
static char * left_xpm[] = {
"32 32 10 1",
" 	c None",
".	c #4878D8",
"+	c #4890D8",
"@	c #4078B8",
"#	c #3060B0",
"$	c #B89088",
"%	c #906868",
"&	c #583840",
"*	c #784848",
"=	c #D8C0A0",
"..++++++++++++++@@@@######$$$$%%",
"..++++++++++++++@@@@######$$$$%%",
"........++++++++@@@@@@@@&&$$%%$$",
"........++++++++@@@@@@@@&&$$%%$$",
"................####@@@@%%****$$",
"................####@@@@%%****$$",
"................########******==",
"................########******==",
"................########****$$%%",
"................########****$$%%",
"................########&&%%%%%%",
"................########&&%%%%%%",
"................########**%%%%$$",
"................########**%%%%$$",
"................########**%%$$$$",
"................########**%%$$$$",
"++..............########&&$$====",
"++..............########&&$$====",
"++..............########&&%%$$$$",
"++..............########&&%%$$$$",
"++++............########%%****$$",
"++++............########%%****$$",
"++++++..........########**&&**%%",
"++++++..........########**&&**%%",
"++++++..........########&&**%%==",
"++++++..........########&&**%%==",
"++++++++........########&&**%%==",
"++++++++........########&&**%%==",
"++++++++++++....########&&%%%%$$",
"++++++++++++....########&&%%%%$$",
"++++++++++++++++##########%%$$$$",
"++++++++++++++++##########%%$$$$"};
