/* XPM */
static char * prof_left_xpm[] = {
"32 38 16 1",
" 	c None",
".	c #FFFFFF",
"+	c #682828",
"@	c #C03838",
"#	c #F86848",
"$	c #E8E8F8",
"%	c #000000",
"&	c #B0B0D0",
"*	c #784040",
"=	c #383878",
"-	c #D89070",
";	c #A87840",
">	c #F8C090",
",	c #B89838",
"'	c #F8D858",
")	c #70A0C0",
"..........++++++++++++++++......",
"..........++++++++++++++++......",
"........++@@############@@++....",
"........++@@############@@++....",
"......++@@################++....",
"......++@@################++....",
"....++++$$################@@++..",
"....++++$$################@@++..",
"..%%$$++$$@@############@@@@++..",
"..%%$$++$$@@############@@@@++..",
"..%%$$@@&&@@@@@@@@@@@@@@@@@@++..",
"..%%$$@@&&@@@@@@@@@@@@@@@@@@++..",
"..%%$$&&@@@@@@@@@@@@@@@@@@++%%..",
"..%%$$&&@@@@@@@@@@@@@@@@@@++%%..",
"....%%&&&&&&@@@@@@@@@@++++**%%..",
"....%%&&&&&&@@@@@@@@@@++++**%%..",
"......**==++++++++++++******%%..",
"......**==++++++++++++******%%..",
"......**----%%----;;>>--**%%....",
"......**----%%----;;>>--**%%....",
"........**>>**>>---->>--%%......",
"........**>>**>>---->>--%%......",
"..........**--------****,,%%....",
"..........**--------****,,%%....",
"..........++****%%%%++,,''''%%..",
"..........++****%%%%++,,''''%%..",
"..........++@@%%====%%,,''**%%..",
"..........++@@%%====%%,,''**%%..",
"..........%%@@++====%%++**,,%%..",
"..........%%@@++====%%++**,,%%..",
"............%%%%----%%%%,,%%....",
"............%%%%----%%%%,,%%....",
"............%%))****))%%%%......",
"............%%))****))%%%%......",
"............%%==@@==%%..........",
"............%%==@@==%%..........",
"..............%%%%%%............",
"..............%%%%%%............"};
