/* XPM */
static char * right_xpm[] = {
"32 32 9 1",
" 	c None",
".	c #784848",
"+	c #583840",
"@	c #4078B8",
"#	c #4890D8",
"$	c #4878D8",
"%	c #3060B0",
"&	c #B89088",
"*	c #906868",
"..++++++@@@@@@@@####$$$$$$$$$$$$",
"..++++++@@@@@@@@####$$$$$$$$$$$$",
"++++++++@@@@@@@@########$$$$$$$$",
"++++++++@@@@@@@@########$$$$$$$$",
"....++++%%%%%%%%$$$$######$$$$$$",
"....++++%%%%%%%%$$$$######$$$$$$",
"&&....++%%%%%%%%$$$$$$$$####$$$$",
"&&....++%%%%%%%%$$$$$$$$####$$$$",
"**++++++%%%%%%%%$$$$$$$$$$##$$$$",
"**++++++%%%%%%%%$$$$$$$$$$##$$$$",
"....++++%%%%%%%%$$$$$$$$$$$$##$$",
"....++++%%%%%%%%$$$$$$$$$$$$##$$",
"&&....%%%%%%%%%%$$$$$$$$$$$$##$$",
"&&....%%%%%%%%%%$$$$$$$$$$$$##$$",
"..++....%%%%%%%%$$$$$$$$$$$$####",
"..++....%%%%%%%%$$$$$$$$$$$$####",
"**++++..%%%%%%%%$$$$$$$$$$$$$$##",
"**++++..%%%%%%%%$$$$$$$$$$$$$$##",
"++++++++%%%%%%%%$$$$$$$$$$$$$$##",
"++++++++%%%%%%%%$$$$$$$$$$$$$$##",
"..++++++%%%%%%%%$$$$$$$$$$$$$$##",
"..++++++%%%%%%%%$$$$$$$$$$$$$$##",
"&&**++%%%%%%%%%%$$$$$$$$$$$$$$##",
"&&**++%%%%%%%%%%$$$$$$$$$$$$$$##",
"....**++%%%%%%%%$$$$$$$$$$$$$$##",
"....**++%%%%%%%%$$$$$$$$$$$$$$##",
"**......%%%%%%%%$$$$$$$$$$$$$$##",
"**......%%%%%%%%$$$$$$$$$$$$$$##",
"&&**....@@@@%%%%$$$$$$$$$$$$$$$$",
"&&**....@@@@%%%%$$$$$$$$$$$$$$$$",
"&&....++@@@@@@@@$$$$$$$$$$$$$$$$",
"&&....++@@@@@@@@$$$$$$$$$$$$$$$$"};
