/* XPM */
static char * top_xpm[] = {
"32 32 6 1",
" 	c None",
".	c #4878D8",
"+	c #4890D8",
"@	c #B89088",
"#	c #D8C0A0",
"$	c #906868",
"..++++++++++++++++++............",
"..++++++++++++++++++............",
"........++++++++++++++++........",
"........++++++++++++++++........",
"....................++++++......",
"....................++++++......",
"........................++++....",
"........................++++....",
"..........................++....",
"..........................++....",
"............................++..",
"............................++..",
"............................++..",
"............................++..",
"............................++++",
"............................++++",
"++............................++",
"++............................++",
"++............................++",
"++............................++",
"++++..........................++",
"++++..........................++",
"++++++........................++",
"++++++........................++",
"++++++........................++",
"++++++........................++",
"++++++++......................++",
"++++++++......................++",
"@@####@@$$$$####@@####@@$$$$####",
"@@####@@$$$$####@@####@@$$$$####",
"@@@@@@$$$$@@@@@@@@@@@@$$$$@@@@@@",
"@@@@@@$$$$@@@@@@@@@@@@$$$$@@@@@@"};
