/* XPM */
static char * top_left_xpm[] = {
"32 32 7 1",
" 	c None",
".	c #4878D8",
"+	c #4890D8",
"@	c #3060B0",
"#	c #583840",
"$	c #906868",
"%	c #D8C0A0",
"..++++++++++++++++++............",
"..++++++++++++++++++............",
"........++++++++++++++++........",
"........++++++++++++++++........",
"....................++++++......",
"....................++++++......",
"........................++++....",
"........................++++....",
"..........................++....",
"..........................++....",
"............................++..",
"............................++..",
"............................++..",
"............................++..",
"............................++++",
"............................++++",
"++............................++",
"++............................++",
"++............................++",
"++............................++",
"++++..........................++",
"++++..........................++",
"++++++........................++",
"++++++........................++",
"++++++........................++",
"++++++........................++",
"++++++++......................++",
"++++++++......................++",
"++++++++++++....@@@@@@@@@@@@####",
"++++++++++++....@@@@@@@@@@@@####",
"++++++++++++++++@@@@@@@@@@##$$%%",
"++++++++++++++++@@@@@@@@@@##$$%%"};
