/* XPM */
static char * top_right_xpm[] = {
"32 32 7 1",
" 	c None",
".	c #4878D8",
"+	c #4890D8",
"@	c #784848",
"#	c #4078B8",
"$	c #3060B0",
"%	c #583840",
"..++++++++++++++++++............",
"..++++++++++++++++++............",
"........++++++++++++++++........",
"........++++++++++++++++........",
"....................++++++......",
"....................++++++......",
"........................++++....",
"........................++++....",
"..........................++....",
"..........................++....",
"............................++..",
"............................++..",
"............................++..",
"............................++..",
"............................++++",
"............................++++",
"++............................++",
"++............................++",
"++............................++",
"++............................++",
"++++..........................++",
"++++..........................++",
"++++++........................++",
"++++++........................++",
"++++++........................++",
"++++++........................++",
"++++++++......................++",
"++++++++......................++",
"@@##########$$$$................",
"@@##########$$$$................",
"%%%%@@##########................",
"%%%%@@##########................"};
