/* XPM */
static char * wall_xpm[] = {
"32 32 12 1",
" 	c None",
".	c #908870",
"+	c #704048",
"@	c #A8A888",
"#	c #787058",
"$	c #B8B898",
"%	c #D8C0B8",
"&	c #907068",
"*	c #C8B098",
"=	c #503040",
"-	c #B89088",
";	c #585860",
"......++++++++@@##......$$$$##..",
"......++++++++@@##......$$$$##..",
"....++%%%%%%&&++##......####....",
"....++%%%%%%&&++##......####....",
"..++**%%%%%%&&&&==....++++......",
"..++**%%%%%%&&&&==....++++......",
"..++******&&&&&&==&&++%%%%++....",
"..++******&&&&&&==&&++%%%%++....",
"$$$$++++&&&&&&++==%%%%%%%%&&++..",
"$$$$++++&&&&&&++==%%%%%%%%&&++..",
"####..++++++====&&%%%%%%%%&&==..",
"####..++++++====&&%%%%%%%%&&==..",
"......++%%--&&++--------&&&&==;;",
"......++%%--&&++--------&&&&==;;",
"..@@++++++&&&&++------&&&&++==;;",
"..@@++++++&&&&++------&&&&++==;;",
"..++%%%%%%%%++++----&&&&++++==;;",
"..++%%%%%%%%++++----&&&&++++==;;",
"++%%%%%%%%%%++++++========++;;;;",
"++%%%%%%%%%%++++++========++;;;;",
"++%%%%%%%%&&++++==;;%%%%++++;;..",
"++%%%%%%%%&&++++==;;%%%%++++;;..",
"++------&&++++++==%%%%%%%%++==;;",
"++------&&++++++==%%%%%%%%++==;;",
"++++----++++++====%%%%%%++++==;;",
"++++----++++++====%%%%%%++++==;;",
"@@========%%%%==------&&++++==;;",
"@@========%%%%==------&&++++==;;",
"##;;;;==%%&&&&====--&&&&++====;;",
"##;;;;==%%&&&&====--&&&&++====;;",
"......;;======;;;;==========;;..",
"......;;======;;;;==========;;.."};
