/* XPM */
static char * water_xpm[] = {
"32 32 3 1",
" 	c None",
".	c #4878D8",
"+	c #4890D8",
"..++++++++++++++++++............",
"..++++++++++++++++++............",
"........++++++++++++++++........",
"........++++++++++++++++........",
"....................++++++......",
"....................++++++......",
"........................++++....",
"........................++++....",
"..........................++....",
"..........................++....",
"............................++..",
"............................++..",
"............................++..",
"............................++..",
"............................++++",
"............................++++",
"++............................++",
"++............................++",
"++............................++",
"++............................++",
"++++..........................++",
"++++..........................++",
"++++++........................++",
"++++++........................++",
"++++++........................++",
"++++++........................++",
"++++++++......................++",
"++++++++......................++",
"++++++++++++....................",
"++++++++++++....................",
"++++++++++++++++................",
"++++++++++++++++................"};
